<?xml version="1.0" encoding="UTF-8"?>
<svg height="16px" viewBox="0 0 16 16" width="16px" xmlns="http://www.w3.org/2000/svg">
    <g fill="#222222">
        <path d="m 8 1 c -2.761424 0 -5 2.238576 -5 5 c 0 1.792 0.941 3.362 2.351 4.256 c 0.398 0.253 0.649 0.628 0.649 1.022 v 0.222 h 4 v -0.222 c 0 -0.394 0.251 -0.769 0.649 -1.022 c 1.41 -0.894 2.351 -2.464 2.351 -4.256 c 0 -2.761424 -2.238576 -5 -5 -5 z m -1.5 11.5 v 0.75 c 0 0.414 0.336 0.75 0.75 0.75 h 1.5 c 0.414 0 0.75 -0.336 0.75 -0.75 v -0.75 z"/>
    </g>
</svg>
